#!OML:ASF Y:\EmotionMaleHayes\Project 1\Capture day 1\Session 1\Male1.ASF
:FULLY-SPECIFIED
:DEGREES
278
root 29.9903 15.4591 -9.27135 121.198 60.4722 475.705
lowerback 18.5865 3.17041 -19.3626
upperback 5.88248 1.15354 -0.70922
thorax -4.07237 0.774853 9.91392
lowerneck -22.1833 -4.52045 -2.38835
upperneck 15.8928 -6.84127 7.01578
head 8.96723 -2.53877 1.83304
rclavicle -4.29375e-014 -7.63333e-014
rhumerus -51.0911 5.16403 -71.1047
rradius 54.5276
rwrist -16.4049
rhand -25.5826 -28.7221
rfingers 7.12502
rthumb 0.948853 -58.6997
lclavicle -4.29375e-014 -7.63333e-014
lhumerus 29.082 14.938 29.5097
lradius 66.7365
lwrist 14.7806
lhand -35.8254 -31.4434
lfingers 7.12502
lthumb -8.94128 -1.65287
rfemur -26.6929 -6.31868 -0.415429
rtibia 56.5813
rfoot -190.486 10.0383
rtoes 25.5798
lfemur -15.1544 7.64749 -40.832
ltibia 44.5826
lfoot 334.23 6.856
ltoes -24.9153
279
root 30.3951 15.5079 -9.3677 119.44 60.3088 473.962
lowerback 19.8925 3.09652 -19.9672
upperback 4.77195 0.421345 -1.31449
thorax -5.80327 0.644363 9.72161
lowerneck -22.2667 -4.01057 -1.48428
upperneck 17.2981 -6.40509 6.51045
head 9.39905 -2.28686 1.57931
rclavicle -6.12257e-014 -1.28812e-013
rhumerus -52.9497 5.26096 -70.0575
rradius 54.44
rwrist -15.8813
rhand -25.0053 -29.3056
rfingers 7.12502
rthumb 1.50645 -59.28
lclavicle -6.12257e-014 -1.28812e-013
lhumerus 27.5372 9.75599 28.8303
lradius 67.115
lwrist 14.8093
lhand -36.2664 -31.8816
lfingers 7.12502
lthumb -9.36689 -2.10975
rfemur -31.0252 -5.26777 0.125435
rtibia 57.6198
rfoot -190.671 8.53187
rtoes 26.1233
lfemur -12.5271 8.61686 -40.9135
ltibia 43.1048
lfoot 333.332 6.22761
ltoes -25.2044
280
root 30.8056 15.5601 -9.45909 118.297 60.2629 472.814
lowerback 19.6974 2.74893 -20.5679
upperback 4.73953 -0.114925 -1.65749
thorax -5.55421 0.377431 9.79312
lowerneck -22.4203 -3.14828 -0.488221
upperneck 17.5839 -5.38908 5.73713
head 9.42762 -1.8287 1.29884
rclavicle 7.63333e-014 -3.65764e-014
rhumerus -52.9207 5.16186 -68.6811
rradius 54.2567
rwrist -15.5001
rhand -24.4743 -29.7062
rfingers 7.12502
rthumb 2.01925 -59.6764
lclavicle 7.63333e-014 -3.65764e-014
lhumerus 26.753 5.91618 29.0209
lradius 67.3518
lwrist 14.1079
lhand -36.278 -31.664
lfingers 7.12502
lthumb -9.37804 -1.89261
rfemur -35.2625 -4.3398 0.947834
rtibia 59.0448
rfoot -190.803 7.26801
rtoes 26.0067
lfemur -9.84331 9.46524 -40.659
ltibia 41.3286
lfoot 332.848 5.51244
ltoes -25.431
281
root 31.2769 15.5714 -9.47527 116.942 65.6606 473.07
lowerback 19.7906 2.9963 -17.475
upperback 5.12092 0.859381 -0.458959
thorax -5.52813 0.759862 9.1988
lowerneck -23.1198 -2.89742 -0.372224
upperneck 18.1496 -5.17159 5.94172
head 9.74837 -1.66374 1.38056
rclavicle -2.22639e-014 -6.20208e-014
rhumerus -53.2251 5.38974 -67.3042
rradius 54.3343
rwrist -15.3777
rhand -24.3405 -29.6393
rfingers 7.12502
rthumb 2.14847 -59.6082
lclavicle -2.22639e-014 -6.20208e-014
lhumerus 25.7854 1.74086 29.6746
lradius 67.3981
lwrist 13.0124
lhand -36.2027 -31.2307
lfingers 7.12502
lthumb -9.30543 -1.45609
rfemur -38.266 -0.132118 9.46592
rtibia 61.2059
rfoot -190.605 8.1136
rtoes 24.2528
lfemur -5.58968 12.3368 -32.7605
ltibia 39.0368
lfoot 332.962 5.18143
ltoes -26.0559
282
root 31.6857 15.7567 -9.69871 118.215 59.9578 473.142
lowerback 19.7609 1.49124 -19.9823
upperback 4.44687 -1.72079 -2.32521
thorax -5.47276 -0.386944 9.08733
lowerneck -23.2996 -2.45694 0.0548065
upperneck 18.6871 -4.64062 5.49792
head 9.92895 -1.42411 1.23683
rclavicle -3.73715e-014 2.38542e-014
rhumerus -53.8865 5.64079 -65.8885
rradius 54.9472
rwrist -15.3475
rhand -24.3235 -29.5443
rfingers 7.12502
rthumb 2.16496 -59.5131
lclavicle -3.73715e-014 2.38542e-014
lhumerus 24.804 -2.78717 30.5666
lradius 66.7739
lwrist 11.7944
lhand -35.7351 -30.4787
lfingers 7.12502
lthumb -8.85415 -0.684415
rfemur -40.6671 -3.95232 1.78902
rtibia 65.7438
rfoot -190.823 5.78619
rtoes 17.2315
lfemur -2.72468 9.77861 -39.8797
ltibia 35.9442
lfoot 333.732 3.54275
ltoes -27.4973
283
root 32.1581 15.8687 -9.83398 117.91 59.8695 473.047
lowerback 19.3739 0.866167 -19.5484
upperback 4.36388 -2.38789 -2.66562
thorax -5.20747 -0.733945 8.60056
lowerneck -23.333 -1.99416 0.482841
upperneck 19.1061 -4.05177 4.9898
head 10.0436 -1.1733 1.07909
rclavicle -1.11319e-014 -3.18055e-015
rhumerus -54.5669 5.95484 -64.4053
rradius 55.8956
rwrist -15.3568
rhand -24.4878 -29.3309
rfingers 7.12502
rthumb 2.00626 -59.3013
lclavicle -1.11319e-014 -3.18055e-015
lhumerus 23.8576 -7.44811 31.6484
lradius 65.4289
lwrist 10.4394
lhand -34.0693 -27.5911
lfingers 7.12502
lthumb -7.24648 2.26481
rfemur -42.7104 -3.91106 2.07755
rtibia 70.0813
rfoot -191.022 5.83835
rtoes 16.4596
lfemur 0.999711 9.63264 -39.5255
ltibia 32.9017
lfoot 334.887 2.3762
ltoes -28.7037
284
root 32.6398 15.992 -9.95994 118.119 59.2022 473.802
lowerback 19.3221 0.137684 -19.483
upperback 4.4006 -3.30258 -2.98037
thorax -4.90004 -1.19753 8.3956
lowerneck -23.3183 -1.54443 0.807765
upperneck 19.3353 -3.45323 4.56636
head 10.0917 -0.922483 0.968464
rclavicle -1.51076e-014 -1.03368e-013
rhumerus -54.9887 6.50597 -62.8744
rradius 56.7752
rwrist -15.2422
rhand -24.6782 -28.862
rfingers 7.12502
rthumb 1.82234 -58.834
lclavicle -1.51076e-014 -1.03368e-013
lhumerus 22.8085 -12.0775 33.002
lradius 63.6678
lwrist 8.96607
lhand -32.9187 -26.1957
lfingers 7.12502
lthumb -6.13576 3.69544
rfemur -43.66 -4.58961 1.91746
rtibia 75.0542
rfoot -191.504 6.65028
rtoes 14.7749
lfemur 4.93129 9.17077 -39.4112
ltibia 30.0192
lfoot 336.766 0.514076
ltoes -29.5356
285
root 33.1314 16.1192 -10.0816 118.82 58.5145 475.044
lowerback 19.1914 -0.679752 -19.3049
upperback 4.44111 -4.29275 -3.23464
thorax -4.54243 -1.70651 8.19637
lowerneck -23.3248 -1.18666 0.949834
upperneck 19.4849 -2.94487 4.26675
head 10.1266 -0.713954 0.917145
rclavicle 1.82882e-014 -1.27222e-014
rhumerus -55.3874 7.1404 -61.3053
rradius 57.7795
rwrist -14.9994
rhand -25.0863 -27.9506
rfingers 7.12502
rthumb 1.42817 -57.9256
lclavicle 1.82882e-014 -1.27222e-014
lhumerus 21.5214 -16.6066 34.7222
lradius 61.6283
lwrist 7.48779
lhand -31.4559 -24.1467
lfingers 7.12502
lthumb -4.72336 5.78068
rfemur -44.2329 -5.56116 1.888
rtibia 81.8536
rfoot -197.208 42.0436
rtoes 14.1952
lfemur 8.67628 8.4931 -39.0799
ltibia 27.287
lfoot 339.604 -2.0788
ltoes -27.5638
286
root 33.6307 16.2484 -10.1941 119.939 58.0759 476.556
lowerback 18.8997 -1.51686 -18.8889
upperback 4.41283 -5.24848 -3.37807
thorax -4.2161 -2.20303 7.96537
lowerneck -23.4453 -0.814573 1.19264
upperneck 19.793 -2.39895 3.71295
head 10.2353 -0.508255 0.765227
rclavicle 7.15625e-015 1.08139e-013
rhumerus -55.8891 7.78243 -59.6452
rradius 59.1668
rwrist -14.8553
rhand -25.6534 -26.7597
rfingers 7.12502
rthumb 0.880493 -56.7376
lclavicle 7.15625e-015 1.08139e-013
lhumerus 19.9232 -20.7582 36.91
lradius 59.4256
lwrist 5.98009
lhand -28.3477 -23.9157
lfingers 7.12502
lthumb -1.72168 6.05705
rfemur -44.3568 -6.45654 2.2913
rtibia 88.1094
rfoot -223.954 76.2694
rtoes 14.5162
lfemur 12.0414 7.82341 -38.2067
ltibia 24.7322
lfoot 343.208 -4.62919
ltoes -25.4362
287
root 34.1375 16.374 -10.292 120.933 57.7397 477.735
lowerback 18.4472 -2.22282 -18.7504
upperback 4.2768 -6.0755 -3.39287
thorax -3.92729 -2.63369 7.98102
lowerneck -23.4885 -0.439242 1.388
upperneck 20.1359 -1.80144 3.05682
head 10.3464 -0.29716 0.592469
rclavicle 3.89618e-014 3.18055e-015
rhumerus -56.2841 8.53166 -57.8206
rradius 60.5135
rwrist -14.8501
rhand -25.8153 -25.7359
rfingers 7.12502
rthumb 0.724149 -55.7145
lclavicle 3.89618e-014 3.18055e-015
lhumerus 17.9102 -24.6896 39.6042
lradius 57.3101
lwrist 4.33088
lhand -25.3051 -24.4782
lfingers 7.12502
lthumb 1.21694 5.49811
rfemur -44.183 -7.3114 2.75907
rtibia 88.6884
rfoot -353.656 64.2407
rtoes 15.2392
lfemur 15.07 7.4973 -36.9558
ltibia 22.3272
lfoot 347.333 -6.98622
ltoes -23.5452
288
root 34.6441 16.4988 -10.3804 121.876 57.6682 478.731
lowerback 17.9227 -2.83042 -18.6236
upperback 4.05793 -6.78203 -3.25955
thorax -3.70742 -3.00377 8.13074
lowerneck -23.1606 -0.13395 1.02677
upperneck 20.0935 -1.22528 2.98162
head 10.2652 -0.0771839 0.712582
rclavicle -3.45885e-014 -8.42847e-014
rhumerus -56.4171 9.35462 -55.8092
rradius 61.9398
rwrist -15.2501
rhand -25.1283 -25.9749
rfingers 7.12502
rthumb 1.38766 -55.9501
lclavicle -3.45885e-014 -8.42847e-014
lhumerus 15.3913 -27.988 43.0188
lradius 55.1207
lwrist 0.524375
lhand -23.2049 -24.1681
lfingers 7.12502
lthumb 3.24522 5.78693
rfemur -44.0087 -7.83858 3.49958
rtibia 82.9787
rfoot -367.156 29.5498
rtoes 16.3215
lfemur 17.7656 7.28563 -35.3407
ltibia 20.09
lfoot 352.105 -8.62263
ltoes -20.1605
